<svg xmlns="http://www.w3.org/2000/svg" viewBox="0 0 95.88 88.41"><defs><style>.cls-1,.cls-8{fill:none;}.cls-1,.cls-2,.cls-8,.cls-9{stroke:#ff6e69;stroke-miterlimit:10;}.cls-1{stroke-width:4px;}.cls-2{fill:#f1f2f2;stroke-width:0.75px;}.cls-3{font-size:10.76px;font-family:Montserrat-Medium, Montserrat;font-weight:500;}.cls-3,.cls-9{fill:#231f20;}.cls-4{letter-spacing:-0.05em;}.cls-5{letter-spacing:0em;}.cls-6{letter-spacing:0.02em;}.cls-7{letter-spacing:-0.01em;}.cls-8{stroke-width:0.25px;}.cls-9{stroke-width:0.13px;}</style></defs><g id="Layer_2" data-name="Layer 2"><g id="Layer_1-2" data-name="Layer 1"><path class="cls-1" d="M15.58,2h34.8"/><path class="cls-1" d="M7.09,39.47A12,12,0,0,1,2,29.63"/><path class="cls-1" d="M25.79,29.51A12.07,12.07,0,0,1,13.89,41.6a14.74,14.74,0,0,1-7.53-2.69"/><path class="cls-1" d="M49.33,29.7A11.69,11.69,0,0,1,37.68,41.6,12,12,0,0,1,25.8,29.5"/><line class="cls-1" x1="27.83" y1="2" x2="25.79" y2="29.7"/><line class="cls-1" x1="49.58" y1="2" x2="49.58" y2="29.7"/><line class="cls-1" x1="5.28" y1="11.86" x2="1.97" y2="30"/><path class="cls-1" d="M15.73,2c-3.37.16-8.8,1.63-10.46,9.93"/><path class="cls-1" d="M81.25,2H48.59"/><path class="cls-1" d="M89.21,39.47a12.17,12.17,0,0,0,4.67-9.83"/><path class="cls-1" d="M71.65,29.7c0,6.57,5,11.9,11.18,11.9a10.68,10.68,0,0,0,6.38-2.13"/><path class="cls-1" d="M49.58,29.67c0,6.57,4.75,11.93,10.92,11.93s11.15-5.52,11.15-12.09"/><line class="cls-1" x1="69.75" y1="2" x2="71.65" y2="29.7"/><line class="cls-1" x1="49.33" y1="2" x2="49.33" y2="29.7"/><line class="cls-1" x1="90.89" y1="11.52" x2="93.91" y2="29.97"/><path class="cls-1" d="M81,2c3.17.16,8.33,1.63,9.89,9.93"/><rect class="cls-1" x="4.17" y="64.66" width="87.43" height="21.75" rx="10"/><line class="cls-1" x1="4.18" y1="36.59" x2="8.65" y2="64.99"/><line class="cls-1" x1="91.82" y1="36.89" x2="86.98" y2="65.01"/><rect class="cls-2" x="7.53" y="43.84" width="82.11" height="20.04" transform="translate(-10.75 12.14) rotate(-12.83)"/><text class="cls-3" transform="translate(12.56 66.06) rotate(-12.83)"><tspan class="cls-4">W</tspan><tspan class="cls-5" x="11.53" y="0">e</tspan><tspan class="cls-6" x="18.09" y="0">’</tspan><tspan class="cls-7" x="20.72" y="0">v</tspan><tspan x="26.57" y="0">e M</tspan><tspan class="cls-7" x="46.33" y="0">ov</tspan><tspan x="58.85" y="0">ed!</tspan></text><circle class="cls-8" cx="84.67" cy="37.49" r="0.79"/><path class="cls-9" d="M84.67,36.69v1.59"/><path class="cls-9" d="M83.82,37.48h1.59"/><circle class="cls-8" cx="12.58" cy="69.94" r="0.79"/><path class="cls-9" d="M13,69.24l-.74,1.4"/><path class="cls-9" d="M11.84,69.54l1.4.74"/></g></g></svg>