<svg xmlns="http://www.w3.org/2000/svg" viewBox="0 0 95.88 88.41"><defs><style>.cls-1,.cls-2{fill:none;stroke:#ff6e69;stroke-miterlimit:10;}.cls-1{stroke-width:4px;}.cls-2{stroke-width:2px;}</style></defs><g id="Layer_2" data-name="Layer 2"><g id="Layer_1-2" data-name="Layer 1"><path class="cls-1" d="M15.58,2h34.8"/><path class="cls-1" d="M7.09,39.47A12,12,0,0,1,2,29.63"/><path class="cls-1" d="M25.79,29.51A12.07,12.07,0,0,1,13.89,41.6a14.74,14.74,0,0,1-7.53-2.69"/><path class="cls-1" d="M49.33,29.7a11.93,11.93,0,0,1-4.93,9.77c-1.88,1.34-2.09-5.08-4.62-5.08-2.11,0-6.19,6.65-7.91,5.67A12.17,12.17,0,0,1,25.8,29.5"/><line class="cls-1" x1="27.83" y1="2" x2="25.79" y2="29.7"/><line class="cls-1" x1="49.58" y1="2" x2="49.58" y2="29.7"/><polyline class="cls-1" points="5.28 11.86 4.68 15.11 5.97 19.93 3.56 21.27 1.97 30"/><path class="cls-1" d="M15.73,2c-3.37.16-8.8,1.63-10.46,9.93"/><path class="cls-1" d="M81.25,2H48.59"/><path class="cls-1" d="M89.21,39.47a12.17,12.17,0,0,0,4.67-9.83"/><path class="cls-1" d="M71.62,29.23c0,6.57,5,12.37,11.21,12.37a10.68,10.68,0,0,0,6.38-2.13"/><path class="cls-1" d="M49.58,29.67c0,6.57,10.24,18.06,10.92,11.93,1.14-10.32,6.69-14.12,11.15-12.09"/><line class="cls-1" x1="69.75" y1="2" x2="71.65" y2="29.7"/><line class="cls-1" x1="49.33" y1="2" x2="49.33" y2="29.7"/><line class="cls-1" x1="90.89" y1="11.52" x2="93.91" y2="29.97"/><path class="cls-1" d="M81,2c3.17.16,8.33,1.63,9.89,9.93"/><path class="cls-1" d="M91.6,76.41a10,10,0,0,1-10,10H14.18a10,10,0,0,1-10-10V74.66a10,10,0,0,1,10-10H36.3c5.51,0,12.72,1.33,16,3s7.81,3,10,3,8.32-1,13.68-2.29l5.86-1.37c5.36-1.26,9.74,2.22,9.74,7.72Z"/><line class="cls-1" x1="4.18" y1="36.59" x2="8.65" y2="64.99"/><line class="cls-1" x1="91.82" y1="36.89" x2="86.7" y2="66.68"/><polyline class="cls-2" points="15.73 64.66 25.8 72.08 19.12 77.74 23.3 81.65"/><line class="cls-2" x1="25.8" y1="72.08" x2="33.39" y2="74.12"/></g></g></svg>